<svg id="visual" viewBox="0 0 900 600" width="900" height="600" xmlns="http://www.w3.org/2000/svg" xmlns:xlink="http://www.w3.org/1999/xlink" version="1.1"><rect x="0" y="0" width="900" height="600" fill="#ffffff"></rect><path d="M247 600L270.7 590C294.3 580 341.7 560 350.7 540C359.7 520 330.3 500 307.7 480C285 460 269 440 281.3 420C293.7 400 334.3 380 356.2 360C378 340 381 320 362.5 300C344 280 304 260 309 240C314 220 364 200 373.8 180C383.7 160 353.3 140 335.7 120C318 100 313 80 314.2 60C315.3 40 322.7 20 326.3 10L330 0L900 0L900 10C900 20 900 40 900 60C900 80 900 100 900 120C900 140 900 160 900 180C900 200 900 220 900 240C900 260 900 280 900 300C900 320 900 340 900 360C900 380 900 400 900 420C900 440 900 460 900 480C900 500 900 520 900 540C900 560 900 580 900 590L900 600Z" fill="#67bfef"></path><path d="M655 600L645.2 590C635.3 580 615.7 560 606.3 540C597 520 598 500 613.7 480C629.3 460 659.7 440 670.7 420C681.7 400 673.3 380 663 360C652.7 340 640.3 320 621.8 300C603.3 280 578.7 260 574.5 240C570.3 220 586.7 200 599.8 180C613 160 623 140 624.3 120C625.7 100 618.3 80 619.8 60C621.3 40 631.7 20 636.8 10L642 0L900 0L900 10C900 20 900 40 900 60C900 80 900 100 900 120C900 140 900 160 900 180C900 200 900 220 900 240C900 260 900 280 900 300C900 320 900 340 900 360C900 380 900 400 900 420C900 440 900 460 900 480C900 500 900 520 900 540C900 560 900 580 900 590L900 600Z" fill="#1296d4"></path></svg>